<svg xmlns="http://www.w3.org/2000/svg" xmlns:xlink="http://www.w3.org/1999/xlink" preserveAspectRatio="xMidYMid" width="99.62" height="90.6" viewBox="0 0 99.62 90.6">
  <defs>
    <style>
      .cls-1 {
        fill: #aeaeae;
        fill-rule: evenodd;
      }
    </style>
  </defs>
  <path d="M98.821,74.156 L36.027,85.960 C35.108,88.230 33.100,90.005 30.520,90.478 C30.078,90.560 29.628,90.601 29.182,90.601 C25.614,90.601 22.557,88.051 21.914,84.538 C21.242,80.865 23.438,77.347 26.891,76.211 L13.416,2.157 L1.158,4.325 C0.615,4.418 0.094,4.057 -0.001,3.514 C-0.097,2.971 0.266,2.451 0.810,2.355 L14.047,0.014 C14.587,-0.079 15.107,0.279 15.205,0.820 L28.855,75.840 C28.967,75.835 29.079,75.809 29.191,75.809 C31.630,75.809 33.810,77.019 35.164,78.897 L97.510,67.177 C97.773,67.130 98.040,67.185 98.259,67.333 C98.478,67.484 98.628,67.714 98.677,67.975 L99.619,72.988 C99.721,73.532 99.364,74.054 98.821,74.156 ZM29.191,77.809 C28.866,77.809 28.538,77.839 28.214,77.898 C25.290,78.436 23.345,81.253 23.880,84.177 C24.350,86.741 26.580,88.600 29.182,88.600 C29.507,88.600 29.836,88.571 30.160,88.511 C33.083,87.975 35.028,85.158 34.494,82.232 C34.022,79.670 31.791,77.809 29.191,77.809 ZM96.897,69.327 L36.149,80.747 C36.277,81.110 36.389,81.483 36.460,81.872 C36.582,82.537 36.579,83.189 36.523,83.832 L97.469,72.375 L96.897,69.327 ZM90.667,64.133 L35.531,74.232 C35.470,74.243 35.410,74.248 35.350,74.248 C34.876,74.248 34.456,73.911 34.368,73.429 L24.268,18.292 C24.169,17.748 24.528,17.227 25.071,17.128 L80.207,7.028 C80.472,6.977 80.738,7.037 80.956,7.188 C81.173,7.339 81.323,7.570 81.371,7.830 L91.471,62.969 C91.519,63.230 91.461,63.500 91.311,63.718 C91.160,63.936 90.929,64.086 90.667,64.133 ZM79.583,9.175 L26.415,18.915 L36.155,72.085 L89.324,62.346 L79.583,9.175 Z" class="cls-1"/>
</svg>
