<svg xmlns="http://www.w3.org/2000/svg" xmlns:xlink="http://www.w3.org/1999/xlink" preserveAspectRatio="xMidYMid" width="93.812" height="93" viewBox="0 0 93.812 93">
  <defs>
    <style>
      .cls-1 {
        fill: #adadad;
        fill-rule: evenodd;
      }
    </style>
  </defs>
  <path d="M88.748,28.746 C85.350,32.117 81.135,33.973 76.879,33.973 C74.890,33.973 72.928,33.579 71.036,32.800 L33.041,70.644 C35.088,76.654 33.574,83.370 29.097,87.921 C25.901,91.168 21.631,92.957 17.075,92.957 C15.730,92.957 14.387,92.795 13.083,92.479 C12.787,92.407 12.540,92.205 12.411,91.928 C12.283,91.652 12.288,91.333 12.424,91.061 C12.471,90.967 12.538,90.870 12.612,90.795 L17.409,85.922 L16.313,76.848 L6.983,75.620 L1.900,80.780 C1.635,81.049 1.241,81.145 0.882,81.030 C0.524,80.915 0.260,80.608 0.200,80.235 C0.137,79.841 -1.262,70.528 5.064,64.254 C8.461,60.884 12.675,59.027 16.932,59.027 C18.921,59.027 20.884,59.422 22.775,60.202 L60.771,22.356 C58.724,16.348 60.238,9.631 64.715,5.080 C67.911,1.832 72.180,0.044 76.736,0.044 C78.081,0.044 79.424,0.203 80.728,0.521 C81.011,0.590 81.250,0.779 81.383,1.038 C81.515,1.298 81.528,1.601 81.418,1.871 C81.368,1.992 81.292,2.112 81.200,2.205 L76.402,7.079 L77.499,16.153 L86.828,17.381 L91.912,12.221 C92.176,11.953 92.570,11.856 92.929,11.970 C93.288,12.086 93.553,12.392 93.612,12.765 C93.675,13.159 95.074,22.473 88.748,28.746 ZM87.903,19.139 C87.683,19.362 87.371,19.470 87.060,19.429 L76.469,18.035 C76.016,17.975 75.661,17.617 75.607,17.164 L74.358,6.841 C74.321,6.538 74.425,6.236 74.638,6.019 L78.455,2.142 C77.885,2.077 77.310,2.044 76.736,2.044 C72.720,2.044 68.958,3.620 66.141,6.482 C62.059,10.633 60.772,16.824 62.862,22.256 C63.004,22.626 62.915,23.044 62.634,23.324 L23.704,62.100 C23.408,62.394 22.960,62.474 22.579,62.297 C20.756,61.454 18.855,61.027 16.932,61.027 C13.207,61.027 9.492,62.677 6.472,65.674 C2.592,69.522 2.023,74.858 2.041,77.786 L5.907,73.861 C6.127,73.638 6.438,73.530 6.751,73.572 L17.344,74.968 C17.796,75.027 18.151,75.386 18.205,75.838 L19.453,86.160 C19.490,86.463 19.386,86.765 19.173,86.981 L15.357,90.857 C15.926,90.923 16.501,90.957 17.075,90.957 C21.091,90.957 24.855,89.380 27.672,86.518 C31.754,82.369 33.041,76.177 30.951,70.744 C30.808,70.374 30.898,69.956 31.178,69.676 L70.107,30.902 C70.404,30.608 70.853,30.530 71.232,30.703 C73.056,31.546 74.955,31.973 76.879,31.973 C80.604,31.973 84.319,30.323 87.340,27.327 C91.235,23.465 91.798,18.133 91.775,15.209 L87.903,19.139 ZM32.004,62.288 C31.809,62.481 31.554,62.578 31.300,62.578 C31.042,62.578 30.785,62.480 30.590,62.282 C30.200,61.890 30.203,61.257 30.595,60.868 L62.918,28.803 C63.310,28.415 63.944,28.418 64.332,28.809 C64.721,29.201 64.718,29.834 64.326,30.223 L32.004,62.288 Z" class="cls-1"/>
</svg>
